<?xml version="1.0" standalone="no"?>
<svg id="arrow" version="1.0" xmlns="http://www.w3.org/2000/svg" viewBox="0 0 800.000000 572.000000">
<g transform="translate(0.000000,572.000000) scale(0.100000,-0.100000)"
fill="currentColor" stroke="none">
<path d="M4320 4138 c-830 -62 -1684 -383 -2515 -942 -82 -56 -162 -109 -177
-119 -24 -16 -22 -10 23 64 53 89 57 108 33 169 -25 61 -99 99 -163 80 -40
-11 -44 -15 -642 -589 -313 -300 -511 -497 -522 -520 -34 -69 0 -163 71 -197
36 -17 43 -17 432 30 438 53 710 90 813 110 107 21 147 60 147 146 0 58 -27
108 -71 132 -38 21 -115 20 -338 -8 -63 -7 -116 -12 -117 -11 -2 1 47 42 108
91 930 746 1819 1166 2743 1297 183 26 617 37 806 19 818 -74 1497 -413 1981
-990 287 -341 495 -790 548 -1183 16 -114 36 -146 93 -147 33 0 87 48 87 77 0
41 -30 273 -45 343 -97 466 -344 910 -709 1276 -638 637 -1564 950 -2586 872z"/>
</g>
</svg>
