<?xml version="1.0" encoding="UTF-8"?>
<!DOCTYPE svg PUBLIC "-//W3C//DTD SVG 1.1//EN" "http://www.w3.org/Graphics/SVG/1.1/DTD/svg11.dtd">
<!-- Creator: CorelDRAW 2021 (64-Bit) -->
<svg xmlns="http://www.w3.org/2000/svg" xml:space="preserve" width="20.1379mm" height="18.7362mm" version="1.1" style="shape-rendering:geometricPrecision; text-rendering:geometricPrecision; image-rendering:optimizeQuality; fill-rule:evenodd; clip-rule:evenodd"
viewBox="0 0 116.15 108.06"
 xmlns:xlink="http://www.w3.org/1999/xlink"
 xmlns:xodm="http://www.corel.com/coreldraw/odm/2003">
 <defs>
  <style type="text/css">
   <![CDATA[
    .fil0 {fill:#434242}
    .fil1 {fill:#434242;fill-rule:nonzero}
   ]]>
  </style>
 </defs>
 <g id="Слой_x0020_1">
  <metadata id="CorelCorpID_0Corel-Layer"/>
  <g id="_1567502329744">
   <path class="fil0" d="M103.22 40.77c-0.15,1.16 -0.4,2.81 -0.76,4.95 -1.97,10.34 -4.08,19 -6.33,25.98 -2.04,6.19 -5.13,13.47 -9.28,21.84 3.49,-3.86 6.55,-6.26 9.17,-7.21 0.58,-0.22 0.87,-0.15 0.87,0.22 0,0.15 -0.18,0.29 -0.55,0.44 -0.36,0.15 -0.62,0.29 -0.76,0.44 -2.47,1.6 -5.24,4.22 -8.3,7.86 -1.46,1.67 -3.17,3.82 -5.13,6.44 -1.02,1.31 -1.97,1.97 -2.84,1.97 -0.66,0 -0.73,-0.47 -0.22,-1.42 0.51,-1.09 1.13,-2.51 1.86,-4.26 3.27,-7.28 6.59,-16.16 9.93,-26.64 3.2,-9.97 5.42,-18.09 6.66,-24.35 0.65,-3.09 1.08,-5.48 1.3,-7.15l0 -0 0.01 -0.06 -0 0 0.15 -1.46c0.35,-2.36 0.66,-5.33 0.94,-8.91 -0.15,0.44 -0.58,1.35 -1.31,2.73 -1.38,2.55 -2.44,4.37 -3.17,5.46l0.01 0 -0.77 1.42c-7.72,12.16 -15.98,22.89 -24.78,32.21 -6.6,6.6 -13.34,12.55 -20.85,18.12 -15.5,11.57 -28.31,17.76 -38.43,18.56 -6.55,0.51 -10.08,-0.66 -10.59,-3.49 -0.29,-1.67 0.51,-3.31 2.4,-4.91 1.67,-1.53 3.86,-2.69 6.55,-3.49 0.95,-0.29 1.49,-0.37 1.64,-0.22 0.07,0.15 -0.22,0.37 -0.87,0.66 -3.86,1.53 -5.79,3.68 -5.79,6.44 0,2.84 2.29,4.15 6.88,3.93 9.1,-0.51 21,-6.62 35.7,-18.34 6.19,-4.95 12.26,-10.41 18.23,-16.38l1.97 -2.07c8.73,-8.81 17.5,-19.29 26.31,-31.44l0.87 -1.31c1.38,-1.89 2.67,-3.8 3.88,-5.73 1.2,-1.93 1.91,-3.69 2.13,-5.3 0.07,-0.51 0.11,-1.38 0.11,-2.62 0,-0.73 0.15,-1.09 0.44,-1.09 1.09,0 1.89,1.31 2.4,3.93 0.66,3.49 0.8,7.86 0.44,13.1l-0.12 1.17 0 0z"/>
   <path class="fil1" d="M61.46 77.51c-9.97,0.22 -17.61,-1.35 -22.92,-4.69 -6.11,-3.78 -8.88,-9.75 -8.3,-17.9 0.51,-6.7 3.09,-13.54 7.75,-20.52 4,-5.97 9.06,-11.35 15.17,-16.16 6.62,-5.24 13.97,-9.5 22.05,-12.77 7.2,-2.91 13.9,-4.66 20.09,-5.24 1.31,-0.15 2.66,-0.22 4.04,-0.22 9.97,0 15.5,2.51 16.59,7.53 0.15,0.73 0.22,1.42 0.22,2.07 0,4 -2.37,7.35 -7.1,10.04 -4.37,2.55 -9.21,3.82 -14.52,3.82 -3.49,0 -6.48,-0.55 -8.95,-1.64 -1.82,-0.87 -3.24,-1.97 -4.26,-3.27 -0.8,-1.09 -1.09,-1.78 -0.87,-2.07l1.31 1.31c1.16,1.24 2.58,2.22 4.26,2.95 2.4,1.09 5.24,1.64 8.51,1.64 4.37,0 8.19,-1.05 11.46,-3.17 3.71,-2.4 5.57,-5.42 5.57,-9.06 0,-0.8 -0.11,-1.6 -0.33,-2.4 -1.02,-4.37 -5.35,-6.55 -12.99,-6.55 -1.09,0 -2.22,0.04 -3.38,0.11 -5.02,0.44 -10.7,2.07 -17.03,4.91 -7.57,3.35 -14.52,7.75 -20.85,13.21 -5.68,4.88 -10.3,10.3 -13.86,16.27 -4.08,6.62 -6.29,13.06 -6.66,19.32 -0.44,7.28 1.71,12.7 6.44,16.27 4.37,3.2 10.7,4.73 18.99,4.59 11.21,-0.22 21.4,-2.87 30.56,-7.97 7.71,-4.29 12.08,-9.64 13.1,-16.05 0.15,-1.09 0.15,-2.15 0,-3.17 -0.22,-1.38 -0.36,-2.04 -0.44,-1.97 0.58,-0.29 1.35,0.22 2.29,1.53 0.66,1.09 0.95,2.29 0.87,3.6 -0.22,5.97 -5.35,11.72 -15.39,17.25 -9.75,5.39 -20.23,8.19 -31.44,8.41z"/>
  </g>
 </g>
</svg>
